<svg xmlns="http://www.w3.org/2000/svg" xmlns:xlink="http://www.w3.org/1999/xlink" version="1.1" x="0px" y="0px" width="100px" height="100px" viewBox="0 0 100 100" enable-background="new 0 0 100 100" xml:space="preserve">
<g id="Captions">
</g>
<g id="Your_Icon">
	<path fill="#000000" d="M89.507,56.26L100,50l-10.493-6.257l8.047-9.194L85.64,31.841l4.81-11.23l-12.168,1.106L79.39,9.548   l-11.23,4.812l-2.71-11.914l-9.189,8.047L50,0l-6.257,10.493l-9.194-8.047L31.841,14.36L20.61,9.548l1.106,12.168L9.548,20.61   l4.812,11.23L2.446,34.548l8.047,9.194L0,50l10.493,6.26l-8.047,9.189l11.914,2.71L9.548,79.39l12.168-1.108L20.61,90.449   l11.23-4.81l2.708,11.914l9.194-8.047L50,100l6.26-10.493l9.189,8.047l2.71-11.914l11.23,4.81l-1.108-12.168l12.168,1.108   l-4.81-11.23l11.914-2.71L89.507,56.26z M62.215,35.522c-3.498-2.233-6.697-3.533-9.752-3.533C47.179,31.989,43.756,36,42.047,42   h18.156L57.9,48H41.229l-0.079,3h15.854l-2.311,5H41.75c1.557,8,5.205,11.867,11.012,11.867c3.721,0,7.52-1.511,11.459-4.638   l-0.074,11.266c-3.422,2.008-7.217,2.991-11.459,2.991c-6.254,0-11.313-2.113-15.106-6.205C34.083,67.56,31.848,63,30.806,56   h-5.732l2.31-5h2.975c0-2,0-3,0.078-3H25l2.31-6h3.792c1.195-6,3.648-10.532,7.369-14.028c3.946-3.797,8.861-5.564,14.738-5.564   c4.242,0,8.781,1.31,13.545,3.767L62.215,35.522z"/>
</g>
</svg>